<svg xmlns="http://www.w3.org/2000/svg" width="128" height="128"><rect width="128" height="128" fill="#2d6a4f"/><rect x="14" y="58" width="26" height="56" fill="#d8e2dc"/><rect x="18" y="64" width="6" height="6" fill="#2d6a4f"/><rect x="28" y="64" width="6" height="6" fill="#2d6a4f"/><rect x="18" y="76" width="6" height="6" fill="#2d6a4f"/><rect x="28" y="76" width="6" height="6" fill="#2d6a4f"/><rect x="52" y="34" width="24" height="80" fill="#e9c46a"/><rect x="58" y="42" width="5" height="5" fill="#7f5539"/><rect x="66" y="42" width="5" height="5" fill="#7f5539"/><rect x="58" y="54" width="5" height="5" fill="#7f5539"/><rect x="66" y="54" width="5" height="5" fill="#7f5539"/><rect x="88" y="70" width="26" height="44" fill="#e76f51"/><rect x="93" y="78" width="6" height="6" fill="#7f2d1d"/><rect x="103" y="78" width="6" height="6" fill="#7f2d1d"/><rect x="60" y="18" width="8" height="16" fill="#e9c46a"/><rect x="68" y="14" width="12" height="8" fill="#e63946"/></svg>
